<svg xmlns="http://www.w3.org/2000/svg" viewBox="0 0 700 275" font-family="system-ui,sans-serif">
<line x1="416" y1="10" x2="416" y2="256" stroke="#8a929b" stroke-width="1" stroke-dasharray="3 3"/>
<text x="416" y="270" text-anchor="middle" font-size="12" fill="#8a929b">68% - agente di default</text>
<text x="0" y="33" font-size="13" fill="#2b323a">default</text><rect x="62" y="18" width="354" height="21" rx="3" fill="#b9c1ca"/><text x="426" y="34" font-size="13" font-weight="700" fill="#2b323a">68%</text><text x="0" y="67" font-size="13" fill="#2b323a">v1</text><rect x="62" y="52" width="406" height="21" rx="3" fill="#a98af0"/><text x="478" y="68" font-size="13" font-weight="700" fill="#2b323a">78%</text><text x="0" y="101" font-size="13" fill="#2b323a">v2</text><rect x="62" y="86" width="395" height="21" rx="3" fill="#a98af0"/><text x="467" y="102" font-size="13" font-weight="700" fill="#2b323a">76%</text><text x="0" y="135" font-size="13" fill="#2b323a">v3</text><rect x="62" y="120" width="364" height="21" rx="3" fill="#d9cdf7"/><text x="436" y="136" font-size="13" font-weight="700" fill="#2b323a">70%</text><text x="0" y="169" font-size="13" fill="#2b323a">v4</text><rect x="62" y="154" width="385" height="21" rx="3" fill="#a98af0"/><text x="457" y="170" font-size="13" font-weight="700" fill="#2b323a">74%</text><text x="0" y="203" font-size="13" fill="#2b323a">v5</text><rect x="62" y="188" width="395" height="21" rx="3" fill="#a98af0"/><text x="467" y="204" font-size="13" font-weight="700" fill="#2b323a">76%</text><text x="0" y="237" font-size="13" fill="#2b323a">v6</text><rect x="62" y="222" width="419" height="21" rx="3" fill="#6d5cf0"/><text x="491" y="238" font-size="13" font-weight="700" fill="#2b323a">80.5%</text>
<text x="470" y="122" font-size="13" fill="#b4453f">v2 e v3: regole aggiunte,</text>
<text x="470" y="142" font-size="13" fill="#b4453f">punteggio sceso</text>
</svg>